<svg width="80.000000" height="57.119141" viewBox="0 0 80 57.1191" fill="none" xmlns="http://www.w3.org/2000/svg" xmlns:xlink="http://www.w3.org/1999/xlink">
	<desc>
			Created with Pixso.
	</desc>
	<defs/>
	<path id="Vector" d="M69.6387 22.083C69.6387 34.2803 59.8535 44.1689 47.7852 44.1689C35.7168 44.1689 25.9375 34.2803 25.9375 22.083C25.9375 9.88477 35.7207 0 47.7891 0C59.8574 0 69.6387 9.88867 69.6387 22.083Z" fill="#FFFF00" fill-opacity="1.000000" fill-rule="nonzero"/>
	<path id="Vector" d="M0 32.7334L0 4.87207L10.7109 4.87207C13.7051 4.87207 16.0703 5.7002 17.8164 7.36133C19.5645 9.01855 20.4375 11.2412 20.4375 14.0293C20.4375 16.8145 19.5645 19.0371 17.8164 20.6973C16.0703 22.3545 13.7012 23.1836 10.7109 23.1836L4.33008 23.1836L4.33008 32.7373L0 32.7373L0 32.7334ZM4.33008 19.1992L10.75 19.1992C12.4043 19.1992 13.6895 18.7412 14.6094 17.8262C15.5293 16.9111 15.9883 15.6436 15.9883 14.0254C15.9883 12.4082 15.5293 11.1406 14.6094 10.2256C13.6895 9.31055 12.4043 8.85254 10.75 8.85254L4.33008 8.85254L4.33008 19.1992Z" fill="#1C1C00" fill-opacity="1.000000" fill-rule="nonzero"/>
	<path id="Vector" d="M33.2656 13.0518C34.3672 13.0518 35.3145 13.1992 36.0996 13.4912L35.4688 17.5117C34.5742 17.166 33.6035 16.9932 32.5527 16.9932C31.1621 16.9932 30.0195 17.4648 29.127 18.4053C28.2363 19.3447 27.791 20.6816 27.791 22.4033L27.791 32.71L23.5781 32.71L23.5781 13.4482L27.791 13.4482L27.791 15.6387C29.0527 13.9131 30.877 13.0518 33.2656 13.0518Z" fill="#1C1C00" fill-opacity="1.000000" fill-rule="nonzero"/>
	<path id="Vector" d="M7.0918 52.9219C5.06055 52.9219 3.37109 52.2412 2.02539 50.8789C0.673828 49.5166 0 47.748 0 45.5752C0 43.4023 0.669922 41.6182 2.00586 40.2275C3.34375 38.8369 5.03906 38.1377 7.08984 38.1377C8.61523 38.1377 9.95117 38.5088 11.1016 39.2471C12.2539 39.9863 13.0059 40.999 13.3594 42.2852L11.2773 43.0273C11.0801 42.1982 10.6035 41.5352 9.83984 41.042C9.07812 40.5479 8.19141 40.2998 7.17383 40.2998C5.80664 40.2998 4.66992 40.79 3.75977 41.7666C2.85156 42.7432 2.39844 44.0039 2.39844 45.543C2.39844 47.1025 2.85156 48.3672 3.75977 49.333C4.66992 50.3027 5.81641 50.7852 7.20312 50.7852C8.20117 50.7852 9.07812 50.5332 9.83984 50.0283C10.6035 49.5244 11.0801 48.8574 11.2773 48.0283L13.3594 48.7383C13.0059 50.043 12.2539 51.0625 11.1016 51.8047C9.95117 52.5508 8.61523 52.9219 7.0918 52.9219Z" fill="#1C1C00" fill-opacity="1.000000" fill-rule="nonzero"/>
	<path id="Vector" d="M29.6328 57.1191L29.6328 52.6162L16.6797 52.6162L16.6797 38.4297L19.0254 38.4297L19.0254 50.4541L26.7031 50.4541L26.7031 38.4297L29.043 38.4297L29.043 50.4541L31.9727 50.4541L31.9727 57.1191L29.6328 57.1191Z" fill="#1C1C00" fill-opacity="1.000000" fill-rule="nonzero"/>
	<path id="Vector" d="M40.3203 52.9189C38.2891 52.9189 36.6074 52.2412 35.2812 50.8896C33.9512 49.5381 33.2891 47.7549 33.2891 45.543C33.2891 43.3301 33.9492 41.543 35.2676 40.1807C36.5859 38.8184 38.25 38.1377 40.2637 38.1377C42.2559 38.1377 43.8809 38.79 45.1426 40.0947C46.4043 41.3984 47.0332 43.125 47.0332 45.2793C47.0332 45.5176 47.0117 45.7734 46.9727 46.0508L35.6348 46.0508C35.7129 47.5527 36.1836 48.7461 37.043 49.6357C37.9004 50.5254 38.9961 50.9688 40.3242 50.9688C41.3398 50.9688 42.2207 50.7168 42.9629 50.2119C43.7031 49.708 44.1738 49.0234 44.3691 48.1553L46.4512 48.8359C46.0996 50.1191 45.3613 51.124 44.2383 51.8447C43.1113 52.5586 41.8066 52.9189 40.3203 52.9189ZM35.752 44.1807L44.7188 44.1807C44.5625 42.9766 44.0859 41.9971 43.2832 41.2471C42.4805 40.498 41.4863 40.123 40.293 40.123C39.1191 40.123 38.125 40.4873 37.3027 41.2188C36.4824 41.9502 35.9648 42.9375 35.752 44.1807Z" fill="#1C1C00" fill-opacity="1.000000" fill-rule="nonzero"/>
	<path id="Vector" d="M50.6172 52.6191L50.6172 38.4297L52.9629 38.4297L52.9629 44.4727L60.6406 44.4727L60.6406 38.4297L62.9805 38.4297L62.9805 52.6191L60.6406 52.6191L60.6406 46.6348L52.9629 46.6348L52.9629 52.6191L50.6172 52.6191Z" fill="#1C1C00" fill-opacity="1.000000" fill-rule="nonzero"/>
	<path id="Vector" d="M79.502 50.875C79.6582 50.875 79.8223 50.8574 80 50.8145L80 52.8281C79.707 52.8857 79.373 52.9189 79.002 52.9189C78.2793 52.9189 77.6719 52.7344 77.1836 52.3711C76.6953 52.0068 76.4043 51.4883 76.3047 50.8145C75.2891 52.2158 73.7227 52.9189 71.6172 52.9189C70.1348 52.9189 68.9258 52.5439 68 51.7939C67.0684 51.0449 66.6094 50.0068 66.6094 48.6846C66.6094 47.3799 67.0586 46.3857 67.957 45.6934C68.8555 45.002 69.9766 44.5879 71.3242 44.4512L76.2793 43.8887L76.2793 43.6221C76.2793 42.498 75.9473 41.626 75.2812 41.0127C74.6172 40.4004 73.7598 40.0947 72.7051 40.0947C71.8457 40.0947 71.1172 40.3174 70.5234 40.7607C69.9277 41.2041 69.5312 41.8027 69.3359 42.5518L67.2539 42.0801C67.5684 40.7969 68.2305 39.8164 69.2461 39.1465C70.2617 38.4766 71.4531 38.1377 72.8223 38.1377C74.5996 38.1377 76.0117 38.6064 77.0566 39.5469C78.0996 40.4834 78.625 41.8242 78.625 43.5605L78.625 50.0176C78.625 50.5908 78.916 50.875 79.502 50.875ZM72.3789 51.0234C73.5703 50.9443 74.5176 50.5332 75.2246 49.7939C75.9258 49.0518 76.2793 48.043 76.2793 46.7568L76.2793 45.752L71.707 46.2852C69.8711 46.4834 68.9512 47.2725 68.9512 48.6553C68.9512 49.4668 69.2891 50.0791 69.9629 50.4932C70.6367 50.9082 71.4434 51.0811 72.3789 51.0234Z" fill="#1C1C00" fill-opacity="1.000000" fill-rule="nonzero"/>
	<mask id="mask1714_618" mask-type="alpha" maskUnits="userSpaceOnUse" x="25.929688" y="0.000000" width="43.701172" height="44.168945">
		<path id="Vector" d="M69.6309 22.083C69.6309 34.2803 59.8457 44.1689 47.7773 44.1689C35.709 44.1689 25.9297 34.2803 25.9297 22.083C25.9297 9.88477 35.7129 0 47.7812 0C59.8496 0 69.6309 9.88867 69.6309 22.083Z" fill="#FFFF00" fill-opacity="1.000000" fill-rule="nonzero"/>
	</mask>
	<g mask="url(#mask1714_618)">
		<path id="Vector" d="M33.2812 13.0518C34.3828 13.0518 35.3301 13.1992 36.1152 13.4912L35.4844 17.5117C34.5898 17.166 33.6191 16.9932 32.5684 16.9932C31.1777 16.9932 30.0352 17.4648 29.1426 18.4053C28.252 19.3447 27.8066 20.6816 27.8066 22.4033L27.8066 32.71L23.5938 32.71L23.5938 13.4482L27.8066 13.4482L27.8066 15.6387C29.0684 13.9131 30.8926 13.0518 33.2812 13.0518Z" fill="#1C1C00" fill-opacity="1.000000" fill-rule="nonzero"/>
	</g>
	<g mask="url(#mask1714_618)">
		<path id="Vector" d="M54.9688 30.3438C53.0527 32.1875 50.6504 33.1104 47.7637 33.1104C44.875 33.1104 42.4727 32.1875 40.5566 30.3438C38.6387 28.499 37.6797 26.1035 37.6797 23.1602C37.6797 20.1338 38.6309 17.6953 40.5352 15.8369C42.4375 13.9814 44.8477 13.0518 47.7598 13.0518C50.6465 13.0518 53.0488 13.9814 54.9668 15.8369C56.8828 17.6953 57.8418 20.1338 57.8418 23.1602C57.8418 26.1074 56.8828 28.499 54.9688 30.3438ZM47.7637 29.292C49.3906 29.292 50.7559 28.7295 51.8574 27.5986C52.959 26.4707 53.5117 24.9795 53.5117 23.1201C53.5117 21.2109 52.9668 19.6914 51.875 18.5635C50.7852 17.4355 49.416 16.8701 47.7637 16.8701C46.1094 16.8701 44.7363 17.4355 43.6465 18.5635C42.5547 19.6914 42.0098 21.2109 42.0098 23.1201C42.0098 24.9795 42.5547 26.4707 43.6465 27.5986C44.7363 28.7256 46.1094 29.292 47.7637 29.292Z" fill="#1C1C00" fill-opacity="1.000000" fill-rule="nonzero"/>
	</g>
	<g mask="url(#mask1714_618)">
		<path id="Vector" d="M40.3203 52.9189C38.2891 52.9189 36.6074 52.2412 35.2812 50.8896C33.9512 49.5381 33.2891 47.7549 33.2891 45.543C33.2891 43.3301 33.9492 41.543 35.2676 40.1807C36.5859 38.8184 38.25 38.1377 40.2637 38.1377C42.2559 38.1377 43.8809 38.79 45.1426 40.0947C46.4043 41.3984 47.0332 43.125 47.0332 45.2793C47.0332 45.5176 47.0117 45.7734 46.9727 46.0508L35.6348 46.0508C35.7129 47.5527 36.1836 48.7461 37.043 49.6357C37.9004 50.5254 38.9961 50.9688 40.3242 50.9688C41.3398 50.9688 42.2207 50.7168 42.9629 50.2119C43.7031 49.708 44.1738 49.0234 44.3691 48.1553L46.4512 48.8359C46.0996 50.1191 45.3613 51.124 44.2383 51.8447C43.1113 52.5586 41.8066 52.9189 40.3203 52.9189ZM35.752 44.1807L44.7188 44.1807C44.5625 42.9766 44.0859 41.9971 43.2832 41.2471C42.4805 40.498 41.4863 40.123 40.293 40.123C39.1191 40.123 38.125 40.4873 37.3027 41.2188C36.4824 41.9502 35.9648 42.9375 35.752 44.1807Z" fill="#1C1C00" fill-opacity="1.000000" fill-rule="nonzero"/>
	</g>
	<g mask="url(#mask1714_618)">
		<path id="Vector" d="M50.6172 52.6191L50.6172 38.4297L52.9629 38.4297L52.9629 44.4727L60.6406 44.4727L60.6406 38.4297L62.9805 38.4297L62.9805 52.6191L60.6406 52.6191L60.6406 46.6348L52.9629 46.6348L52.9629 52.6191L50.6172 52.6191Z" fill="#1C1C00" fill-opacity="1.000000" fill-rule="nonzero"/>
	</g>
</svg>
